<svg version="1.1" id="Layer_1" xmlns="http://www.w3.org/2000/svg" xmlns:xlink="http://www.w3.org/1999/xlink" x="0px" y="0px"
	 width="100%" viewBox="0 0 512 512" enable-background="new 0 0 512 512" xml:space="preserve">
<path fill="#FDFEFE" opacity="1.000000" stroke="none" 
	d="
M271.000000,513.000000 
	C180.688583,513.000000 90.877167,513.000000 1.032874,513.000000 
	C1.032874,342.396881 1.032874,171.793777 1.032874,1.095328 
	C171.561432,1.095328 342.122955,1.095328 512.842224,1.095328 
	C512.842224,171.666550 512.842224,342.333252 512.842224,513.000000 
	C432.460419,513.000000 351.980194,513.000000 271.000000,513.000000 
M256.343231,193.547684 
	C259.226654,189.447891 262.110107,185.348099 265.548492,180.839020 
	C272.220154,171.613358 278.891846,162.387711 285.998932,152.559967 
	C268.834564,152.559967 252.774216,152.559967 237.440033,152.559967 
	C237.717041,162.253693 237.986237,171.674210 238.087067,181.982239 
	C238.156265,185.883514 238.225479,189.784790 238.082947,194.654861 
	C238.082947,198.707794 238.082947,202.760727 238.082947,208.236267 
	C242.191315,206.937332 246.015045,206.782623 248.151184,204.805038 
	C251.328049,201.863968 253.312012,197.634323 256.343231,193.547684 
M338.005859,193.932709 
	C337.720276,195.514145 337.782166,197.275742 337.075409,198.638779 
	C335.684143,201.321945 334.368378,205.312775 332.129700,206.048141 
	C325.635468,208.181351 324.612549,214.402145 320.436401,218.309113 
	C328.764526,222.628662 339.932495,219.258377 345.515106,210.588409 
	C347.464203,207.561401 349.521606,206.860733 352.760895,206.898178 
	C365.050720,207.040314 377.343323,206.991699 389.634644,206.946320 
	C398.359802,206.914124 402.756042,202.667297 404.123047,193.861328 
	C410.504822,193.861328 416.886566,193.861328 422.779846,193.861328 
	C422.779846,189.301758 422.779846,185.443069 422.779846,180.779663 
	C416.509064,180.779663 410.103180,180.779663 403.709473,179.871109 
	C402.710266,160.313629 401.711060,140.756149 400.671539,120.409676 
	C402.676453,120.409676 405.446716,120.365761 408.214966,120.421303 
	C411.354645,120.484291 412.331421,121.642349 411.841125,125.146896 
	C411.108612,130.382263 411.222015,135.769974 411.365387,141.082352 
	C411.466400,144.825699 413.945374,146.920013 417.622375,146.757553 
	C421.113037,146.603333 423.034943,144.336639 423.070984,140.813889 
	C423.127258,135.318054 423.288025,129.805313 422.950195,124.327766 
	C422.475922,116.637550 416.460693,111.223045 408.758667,111.119041 
	C405.927307,111.080803 403.050690,111.422211 400.280975,111.010368 
	C398.834351,110.795265 396.844421,109.615021 396.344513,108.370659 
	C391.612823,96.593117 382.573944,91.871979 370.419037,91.874886 
	C350.095520,91.879753 329.772003,91.852341 309.448486,91.838821 
	C307.677948,91.837639 305.907440,91.838661 304.383331,91.838661 
	C300.512695,81.854996 297.968414,79.433052 290.836884,79.398582 
	C270.180603,79.298744 249.523697,79.329018 228.867020,79.321526 
	C223.061066,79.319420 218.686096,81.930916 217.013870,87.461243 
	C215.822021,91.402916 213.669006,91.884460 210.111893,91.866096 
	C183.958557,91.731110 157.804001,91.733795 131.650269,91.823158 
	C119.126938,91.865952 110.113617,99.662361 108.139099,111.970535 
	C107.533508,115.745438 107.019272,119.575615 106.950859,123.389229 
	C106.607338,142.539307 106.425430,161.692291 105.245758,181.014755 
	C102.588211,181.046478 99.922615,180.956558 97.274590,181.132004 
	C88.213120,181.732330 80.441612,185.202591 74.884224,192.489029 
	C67.148308,202.631790 65.895340,213.798935 71.420036,225.308441 
	C76.844276,236.608658 86.313957,241.873108 98.715599,241.955185 
	C114.658531,242.060715 130.602051,242.077454 146.265732,242.799072 
	C144.137787,246.180313 141.704727,249.412308 139.959229,252.980621 
	C137.783890,257.427704 135.345459,258.619263 130.221573,257.051025 
	C115.864044,252.656738 101.117149,259.129364 93.047874,272.545502 
	C85.575180,284.969727 87.166801,302.269165 97.010384,312.481781 
	C105.856987,321.660065 116.729462,325.684235 129.237915,322.472809 
	C141.815659,319.243591 150.943039,311.719330 154.051666,298.439270 
	C154.697739,295.679321 155.923416,294.530518 158.826813,294.745850 
	C162.077148,294.986877 165.359146,294.801178 168.022491,294.801178 
	C172.296921,277.351105 165.323807,262.491486 159.741898,247.069504 
	C163.233521,246.848785 165.841278,246.683960 168.867798,246.492645 
	C168.867798,244.809387 168.867798,243.372116 169.032486,241.025940 
	C169.032486,237.275986 169.032486,233.526031 169.032486,228.980957 
	C163.499435,228.980957 158.430573,228.980957 153.192520,228.165100 
	C154.458817,227.439163 155.706558,226.140945 156.995010,226.099213 
	C160.292160,225.992447 162.717896,224.923279 162.790695,221.439713 
	C162.873657,217.470795 160.006317,216.738007 156.660339,216.760986 
	C150.376083,216.804153 144.080719,216.918991 137.810104,216.603622 
	C134.258911,216.425003 131.607071,217.306213 131.450256,221.007767 
	C131.294571,224.683304 134.014603,225.769867 137.396667,226.203537 
	C139.108109,226.423004 140.647415,227.984680 141.303375,229.086319 
	C126.655296,229.130508 112.005882,229.311691 97.359612,229.169571 
	C87.956978,229.078339 80.871376,221.518463 80.816528,212.072220 
	C80.758247,202.033203 87.914810,194.166840 97.487511,193.869843 
	C100.473885,193.777191 103.469048,193.967575 106.435570,194.786865 
	C107.323364,203.243622 111.256783,206.972565 119.643768,207.024750 
	C131.775467,207.100235 143.908661,207.120697 156.039627,207.002594 
	C159.234100,206.971497 161.679169,207.232513 163.236771,210.706116 
	C164.130356,212.698914 166.421738,214.064911 168.839432,216.462326 
	C168.839432,207.915710 168.839432,200.807617 169.018555,192.827606 
	C168.970016,188.920761 168.921478,185.013931 169.068695,180.173859 
	C169.307785,171.085022 169.546860,161.996170 169.762360,153.803711 
	C168.765060,151.441513 167.347687,149.601852 167.305252,147.731033 
	C167.074890,137.575989 167.183319,127.413231 167.176727,117.253136 
	C167.174286,113.484230 167.176346,109.715324 167.176346,105.824158 
	C186.103592,105.824158 204.342072,105.824158 222.443710,105.824158 
	C222.725830,106.428169 222.979492,106.719116 222.981125,107.011452 
	C223.028229,115.504471 223.061142,123.997604 223.072922,132.490753 
	C223.083694,140.255356 223.071701,140.255371 231.157928,143.177628 
	C231.157928,130.603394 231.157928,118.196060 231.157928,105.814774 
	C250.382187,105.814774 269.134064,105.814774 288.487457,105.814774 
	C288.487457,120.292465 288.487457,134.471802 288.487457,148.754578 
	C295.227356,146.537262 296.704620,142.185776 296.379517,135.977692 
	C295.859558,126.049385 296.240356,116.073891 296.240356,105.898521 
	C315.540924,105.898521 334.400360,105.898521 353.663330,105.898521 
	C353.663330,117.068962 353.663330,127.847916 353.663330,138.852844 
	C356.341888,138.852844 358.615295,138.852844 361.499756,138.852844 
	C361.499756,127.790756 361.499756,116.893394 361.499756,106.093201 
	C380.456573,103.805923 385.157349,107.621819 386.445251,123.825356 
	C386.484741,124.322372 386.594421,124.813408 386.657074,125.309044 
	C387.772186,134.133987 388.885071,142.959198 390.057648,152.253632 
	C383.274017,152.253632 377.134857,152.149979 371.003937,152.329010 
	C369.534058,152.371933 367.494843,152.921448 366.730499,153.973785 
	C360.282928,162.850647 354.070740,171.898483 347.241455,181.262619 
	C344.357788,185.315140 341.474121,189.367645 338.005859,193.932709 
M177.926224,231.500000 
	C177.927170,263.989807 177.926971,296.479614 177.931702,328.969421 
	C177.932007,331.135254 177.886581,333.305634 178.004532,335.466125 
	C178.471466,344.017975 183.903152,349.201813 192.513977,349.277496 
	C200.011169,349.343414 207.510254,349.401764 215.006531,349.307251 
	C223.057037,349.205811 228.467026,344.051239 229.085983,336.044464 
	C229.226898,334.221344 229.161896,332.380798 229.158813,330.548309 
	C229.129715,313.220276 229.048904,295.892120 229.079132,278.564209 
	C229.093140,270.536102 233.203598,267.049377 241.122620,267.847168 
	C245.960663,268.334564 248.780624,271.444580 251.386414,275.030365 
	C265.782715,294.840637 280.320923,314.549225 294.558411,334.472809 
	C301.644348,344.388672 311.102264,349.079529 323.079071,349.120239 
	C336.574860,349.166138 350.070862,349.156128 363.566772,349.154053 
	C364.635895,349.153870 365.705017,349.025421 367.419769,348.914978 
	C366.290802,347.233154 365.613342,346.146271 364.860748,345.114166 
	C342.580811,314.558960 320.290955,284.010986 298.008789,253.457428 
	C292.246460,245.556076 292.228577,242.736511 297.981476,234.691681 
	C317.555023,207.320099 337.147400,179.962021 356.726746,152.594574 
	C357.719910,151.206390 358.658051,149.778839 360.089874,147.685181 
	C346.872101,147.685181 334.697540,148.206543 322.585938,147.555481 
	C306.832703,146.708664 295.710266,152.924362 287.005798,166.025681 
	C275.305847,183.635483 262.512482,200.519562 250.159256,217.694153 
	C246.402740,222.916809 240.723175,224.998199 235.372803,223.247437 
	C230.733307,221.729324 229.147491,218.735245 229.156403,211.556671 
	C229.176254,195.561508 229.212753,179.566345 229.197601,163.571198 
	C229.187180,152.575424 223.915161,147.230652 213.072464,147.159744 
	C207.074463,147.120514 201.076111,147.133896 195.077911,147.130844 
	C182.908707,147.124649 177.946213,152.144745 177.937851,164.519943 
	C177.922989,186.513290 177.929031,208.506653 177.926224,231.500000 
M354.559418,427.157135 
	C335.839539,431.235352 317.040771,430.862976 298.623383,426.209717 
	C279.117767,421.281403 259.933929,415.078583 240.612656,409.421661 
	C213.661148,401.530731 186.322495,396.927887 158.328339,402.173767 
	C147.938599,404.120667 137.801971,407.705139 127.777405,411.196136 
	C122.544991,413.018280 120.763405,418.798859 122.812187,423.667725 
	C124.804108,428.401489 129.457077,430.318634 134.890091,428.588013 
	C136.155457,428.184967 137.373810,427.625824 138.596359,427.098175 
	C150.524902,421.949860 163.078583,419.668976 175.972580,419.045380 
	C202.967422,417.739807 228.417892,425.043762 253.578964,433.455353 
	C282.185242,443.018677 311.070801,450.348145 341.621796,448.038177 
	C359.791626,446.664368 377.031952,441.905334 393.212585,433.651489 
	C395.770966,432.346375 398.367920,429.038666 398.912048,426.258545 
	C400.452728,418.386169 393.175049,413.862000 385.087372,416.833160 
	C375.267822,420.440643 365.297943,423.638916 354.559418,427.157135 
M334.445862,414.934326 
	C338.930664,414.610138 343.429535,414.417450 347.897705,413.938110 
	C363.985931,412.212189 379.131805,407.268768 393.575897,400.121094 
	C398.611298,397.629333 400.304504,392.784058 398.212860,387.976562 
	C396.193390,383.334930 391.301788,381.451569 386.024536,383.365936 
	C384.463501,383.932251 382.985779,384.727570 381.467865,385.413513 
	C366.561493,392.150085 350.967560,395.803070 334.585571,396.359802 
	C312.425842,397.112915 291.202087,392.360962 270.346252,385.634430 
	C245.759171,377.704437 221.261734,369.556030 195.257278,367.505463 
	C172.280701,365.693665 150.008636,368.306610 128.817474,377.815521 
	C122.824394,380.504761 120.603653,385.606140 122.885155,390.696564 
	C125.086838,395.608887 130.288773,397.468170 136.014679,394.841858 
	C153.592194,386.779633 172.073135,384.623047 191.154938,385.747559 
	C213.529816,387.066132 234.640198,393.773834 255.712204,400.667969 
	C280.987640,408.937225 306.538055,415.671692 334.445862,414.934326 
M399.922974,321.700592 
	C414.328827,325.910645 426.783325,322.478424 436.527222,311.226776 
	C445.586548,300.765656 446.842712,285.274109 440.010590,273.279907 
	C432.597473,260.265717 421.086517,254.511490 406.216400,255.883743 
	C403.187653,256.163239 402.086121,255.060104 401.164062,252.550369 
	C397.489014,242.546967 393.667938,232.597305 389.924652,222.618851 
	C388.532532,218.907928 386.260559,216.207687 382.026184,216.039902 
	C378.533234,215.901520 374.938568,215.566559 371.568665,216.230637 
	C369.831909,216.572876 367.170532,219.008926 367.275665,220.308914 
	C367.430267,222.220123 369.337555,224.603577 371.149078,225.587723 
	C372.835907,226.504135 375.393250,225.695328 377.529480,225.956161 
	C378.702301,226.099380 380.462982,226.599991 380.813904,227.425827 
	C382.521515,231.444748 383.842468,235.627945 385.529083,240.400528 
	C370.352356,240.400528 356.214020,240.528030 342.084839,240.226059 
	C340.467499,240.191483 338.901520,237.755249 337.311707,236.432617 
	C337.618561,235.994644 337.925446,235.556671 338.232300,235.118683 
	C339.195221,235.015518 340.159241,234.815460 341.120819,234.826691 
	C344.493378,234.865997 347.460388,233.809601 347.518555,230.089615 
	C347.581573,226.060974 344.512848,225.026718 340.927887,225.058304 
	C334.763763,225.112640 328.597656,225.114639 322.434265,225.019287 
	C319.115692,224.967957 316.640900,226.217514 316.528412,229.640961 
	C316.412384,233.172028 318.678741,234.954391 322.252319,235.209122 
	C326.215240,235.491623 331.344055,242.048691 329.700897,245.629608 
	C327.647064,250.105545 324.744720,254.412460 321.308594,257.907440 
	C320.192932,259.042206 316.249512,257.382904 313.594757,257.038116 
	C313.299194,256.999725 312.972443,257.201630 312.278534,257.402679 
	C313.116425,258.710693 313.828949,259.961945 314.672485,261.117584 
	C320.760559,269.458191 327.660126,277.330505 332.753448,286.237091 
	C337.536133,294.600403 344.152191,295.870880 352.280029,294.611298 
	C354.400909,294.282623 356.883636,293.203064 358.254700,291.639343 
	C365.338013,283.560974 372.054749,275.162720 379.021912,266.980377 
	C382.639923,262.731384 386.511261,258.698120 390.411346,254.409943 
	C392.903351,257.807709 393.339020,259.998718 389.999542,262.494598 
	C379.061066,270.669952 375.167664,282.006073 377.277649,295.145477 
	C379.341217,307.995941 386.873688,316.835358 399.922974,321.700592 
M241.529541,277.545074 
	C238.350464,276.160736 237.835358,277.867828 237.861237,280.547485 
	C237.950974,289.843201 237.940933,299.139893 237.997040,308.436035 
	C238.005066,309.767822 238.168076,311.098694 238.291718,312.901947 
	C249.176834,303.307068 250.640228,287.998840 241.529541,277.545074 
M441.770996,179.259613 
	C437.614502,178.335495 433.509735,179.085358 432.109680,183.186951 
	C431.121399,186.082336 431.306549,190.375656 432.872498,192.829269 
	C434.120514,194.784668 438.626770,196.190277 440.992889,195.491394 
	C443.592529,194.723526 446.359344,191.609329 447.323639,188.901489 
	C448.761322,184.864243 446.182526,181.630447 441.770996,179.259613 
z"/>
<path fill="#293C99" opacity="1.000000" stroke="none" 
	d="
M177.926285,231.000000 
	C177.929031,208.506653 177.922989,186.513290 177.937851,164.519943 
	C177.946213,152.144745 182.908707,147.124649 195.077911,147.130844 
	C201.076111,147.133896 207.074463,147.120514 213.072464,147.159744 
	C223.915161,147.230652 229.187180,152.575424 229.197601,163.571198 
	C229.212753,179.566345 229.176254,195.561508 229.156403,211.556671 
	C229.147491,218.735245 230.733307,221.729324 235.372803,223.247437 
	C240.723175,224.998199 246.402740,222.916809 250.159256,217.694153 
	C262.512482,200.519562 275.305847,183.635483 287.005798,166.025681 
	C295.710266,152.924362 306.832703,146.708664 322.585938,147.555481 
	C334.697540,148.206543 346.872101,147.685181 360.089874,147.685181 
	C358.658051,149.778839 357.719910,151.206390 356.726746,152.594574 
	C337.147400,179.962021 317.555023,207.320099 297.981476,234.691681 
	C292.228577,242.736511 292.246460,245.556076 298.008789,253.457428 
	C320.290955,284.010986 342.580811,314.558960 364.860748,345.114166 
	C365.613342,346.146271 366.290802,347.233154 367.419769,348.914978 
	C365.705017,349.025421 364.635895,349.153870 363.566772,349.154053 
	C350.070862,349.156128 336.574860,349.166138 323.079071,349.120239 
	C311.102264,349.079529 301.644348,344.388672 294.558411,334.472809 
	C280.320923,314.549225 265.782715,294.840637 251.386414,275.030365 
	C248.780624,271.444580 245.960663,268.334564 241.122620,267.847168 
	C233.203598,267.049377 229.093140,270.536102 229.079132,278.564209 
	C229.048904,295.892120 229.129715,313.220276 229.158813,330.548309 
	C229.161896,332.380798 229.226898,334.221344 229.085983,336.044464 
	C228.467026,344.051239 223.057037,349.205811 215.006531,349.307251 
	C207.510254,349.401764 200.011169,349.343414 192.513977,349.277496 
	C183.903152,349.201813 178.471466,344.017975 178.004532,335.466125 
	C177.886581,333.305634 177.932007,331.135254 177.931702,328.969421 
	C177.926971,296.479614 177.927170,263.989807 177.926285,231.000000 
z"/>
<path fill="#2D4099" opacity="1.000000" stroke="none" 
	d="
M347.787842,180.894943 
	C354.070740,171.898483 360.282928,162.850647 366.730499,153.973785 
	C367.494843,152.921448 369.534058,152.371933 371.003937,152.329010 
	C377.134857,152.149979 383.274017,152.253632 390.057648,152.253632 
	C388.885071,142.959198 387.772186,134.133987 386.657074,125.309044 
	C386.594421,124.813408 386.484741,124.322372 386.445251,123.825356 
	C385.157349,107.621819 380.456573,103.805923 361.499756,106.093201 
	C361.499756,116.893394 361.499756,127.790756 361.499756,138.852844 
	C358.615295,138.852844 356.341888,138.852844 353.663330,138.852844 
	C353.663330,127.847916 353.663330,117.068962 353.663330,105.898521 
	C334.400360,105.898521 315.540924,105.898521 296.240356,105.898521 
	C296.240356,116.073891 295.859558,126.049385 296.379517,135.977692 
	C296.704620,142.185776 295.227356,146.537262 288.487457,148.754578 
	C288.487457,134.471802 288.487457,120.292465 288.487457,105.814774 
	C269.134064,105.814774 250.382187,105.814774 231.157928,105.814774 
	C231.157928,118.196060 231.157928,130.603394 231.157928,143.177628 
	C223.071701,140.255371 223.083694,140.255356 223.072922,132.490753 
	C223.061142,123.997604 223.028229,115.504471 222.981125,107.011452 
	C222.979492,106.719116 222.725830,106.428169 222.443710,105.824158 
	C204.342072,105.824158 186.103592,105.824158 167.176346,105.824158 
	C167.176346,109.715324 167.174286,113.484230 167.176727,117.253136 
	C167.183319,127.413231 167.074890,137.575989 167.305252,147.731033 
	C167.347687,149.601852 168.765060,151.441513 169.762360,153.803711 
	C169.546860,161.996170 169.307785,171.085022 168.512451,180.630646 
	C147.366379,181.006363 126.776566,180.925308 106.186752,180.844254 
	C106.425430,161.692291 106.607338,142.539307 106.950859,123.389229 
	C107.019272,119.575615 107.533508,115.745438 108.139099,111.970535 
	C110.113617,99.662361 119.126938,91.865952 131.650269,91.823158 
	C157.804001,91.733795 183.958557,91.731110 210.111893,91.866096 
	C213.669006,91.884460 215.822021,91.402916 217.013870,87.461243 
	C218.686096,81.930916 223.061066,79.319420 228.867020,79.321526 
	C249.523697,79.329018 270.180603,79.298744 290.836884,79.398582 
	C297.968414,79.433052 300.512695,81.854996 304.383331,91.838661 
	C305.907440,91.838661 307.677948,91.837639 309.448486,91.838821 
	C329.772003,91.852341 350.095520,91.879753 370.419037,91.874886 
	C382.573944,91.871979 391.612823,96.593117 396.344513,108.370659 
	C396.844421,109.615021 398.834351,110.795265 400.280975,111.010368 
	C403.050690,111.422211 405.927307,111.080803 408.758667,111.119041 
	C416.460693,111.223045 422.475922,116.637550 422.950195,124.327766 
	C423.288025,129.805313 423.127258,135.318054 423.070984,140.813889 
	C423.034943,144.336639 421.113037,146.603333 417.622375,146.757553 
	C413.945374,146.920013 411.466400,144.825699 411.365387,141.082352 
	C411.222015,135.769974 411.108612,130.382263 411.841125,125.146896 
	C412.331421,121.642349 411.354645,120.484291 408.214966,120.421303 
	C405.446716,120.365761 402.676453,120.409676 400.671539,120.409676 
	C401.711060,140.756149 402.710266,160.313629 403.263214,180.411316 
	C384.473907,180.932678 366.130890,180.913818 347.787842,180.894943 
M121.086388,137.099136 
	C122.371498,145.455887 126.074493,150.760376 133.323364,151.501648 
	C141.828064,152.371323 150.489807,151.705215 159.093216,151.705215 
	C159.093216,136.305313 159.093216,121.076210 159.093216,105.649330 
	C151.428513,105.649330 144.097153,105.205956 136.843246,105.765900 
	C128.500732,106.409859 123.895058,111.038277 122.649178,119.322617 
	C121.809258,124.907616 121.573822,130.583511 121.086388,137.099136 
z"/>
<path fill="#58C4B3" opacity="1.000000" stroke="none" 
	d="
M354.976257,427.085693 
	C365.297943,423.638916 375.267822,420.440643 385.087372,416.833160 
	C393.175049,413.862000 400.452728,418.386169 398.912048,426.258545 
	C398.367920,429.038666 395.770966,432.346375 393.212585,433.651489 
	C377.031952,441.905334 359.791626,446.664368 341.621796,448.038177 
	C311.070801,450.348145 282.185242,443.018677 253.578964,433.455353 
	C228.417892,425.043762 202.967422,417.739807 175.972580,419.045380 
	C163.078583,419.668976 150.524902,421.949860 138.596359,427.098175 
	C137.373810,427.625824 136.155457,428.184967 134.890091,428.588013 
	C129.457077,430.318634 124.804108,428.401489 122.812187,423.667725 
	C120.763405,418.798859 122.544991,413.018280 127.777405,411.196136 
	C137.801971,407.705139 147.938599,404.120667 158.328339,402.173767 
	C186.322495,396.927887 213.661148,401.530731 240.612656,409.421661 
	C259.933929,415.078583 279.117767,421.281403 298.623383,426.209717 
	C317.040771,430.862976 335.839539,431.235352 354.976257,427.085693 
z"/>
<path fill="#3279BD" opacity="1.000000" stroke="none" 
	d="
M333.953857,414.942139 
	C306.538055,415.671692 280.987640,408.937225 255.712204,400.667969 
	C234.640198,393.773834 213.529816,387.066132 191.154938,385.747559 
	C172.073135,384.623047 153.592194,386.779633 136.014679,394.841858 
	C130.288773,397.468170 125.086838,395.608887 122.885155,390.696564 
	C120.603653,385.606140 122.824394,380.504761 128.817474,377.815521 
	C150.008636,368.306610 172.280701,365.693665 195.257278,367.505463 
	C221.261734,369.556030 245.759171,377.704437 270.346252,385.634430 
	C291.202087,392.360962 312.425842,397.112915 334.585571,396.359802 
	C350.967560,395.803070 366.561493,392.150085 381.467865,385.413513 
	C382.985779,384.727570 384.463501,383.932251 386.024536,383.365936 
	C391.301788,381.451569 396.193390,383.334930 398.212860,387.976562 
	C400.304504,392.784058 398.611298,397.629333 393.575897,400.121094 
	C379.131805,407.268768 363.985931,412.212189 347.897705,413.938110 
	C343.429535,414.417450 338.930664,414.610138 333.953857,414.942139 
z"/>
<path fill="#F2943A" opacity="1.000000" stroke="none" 
	d="
M399.554901,321.557190 
	C386.873688,316.835358 379.341217,307.995941 377.277649,295.145477 
	C375.167664,282.006073 379.061066,270.669952 389.999542,262.494598 
	C393.339020,259.998718 392.903351,257.807709 390.411346,254.409943 
	C386.511261,258.698120 382.639923,262.731384 379.021912,266.980377 
	C372.054749,275.162720 365.338013,283.560974 358.254700,291.639343 
	C356.883636,293.203064 354.400909,294.282623 352.280029,294.611298 
	C344.152191,295.870880 337.536133,294.600403 332.753448,286.237091 
	C327.660126,277.330505 320.760559,269.458191 314.672485,261.117584 
	C313.828949,259.961945 313.116425,258.710693 312.278534,257.402679 
	C312.972443,257.201630 313.299194,256.999725 313.594757,257.038116 
	C316.249512,257.382904 320.192932,259.042206 321.308594,257.907440 
	C324.744720,254.412460 327.647064,250.105545 329.700897,245.629608 
	C331.344055,242.048691 326.215240,235.491623 322.252319,235.209122 
	C318.678741,234.954391 316.412384,233.172028 316.528412,229.640961 
	C316.640900,226.217514 319.115692,224.967957 322.434265,225.019287 
	C328.597656,225.114639 334.763763,225.112640 340.927887,225.058304 
	C344.512848,225.026718 347.581573,226.060974 347.518555,230.089615 
	C347.460388,233.809601 344.493378,234.865997 341.120819,234.826691 
	C340.159241,234.815460 339.195221,235.015518 338.232300,235.118683 
	C337.925446,235.556671 337.618561,235.994644 337.311707,236.432617 
	C338.901520,237.755249 340.467499,240.191483 342.084839,240.226059 
	C356.214020,240.528030 370.352356,240.400528 385.529083,240.400528 
	C383.842468,235.627945 382.521515,231.444748 380.813904,227.425827 
	C380.462982,226.599991 378.702301,226.099380 377.529480,225.956161 
	C375.393250,225.695328 372.835907,226.504135 371.149078,225.587723 
	C369.337555,224.603577 367.430267,222.220123 367.275665,220.308914 
	C367.170532,219.008926 369.831909,216.572876 371.568665,216.230637 
	C374.938568,215.566559 378.533234,215.901520 382.026184,216.039902 
	C386.260559,216.207687 388.532532,218.907928 389.924652,222.618851 
	C393.667938,232.597305 397.489014,242.546967 401.164062,252.550369 
	C402.086121,255.060104 403.187653,256.163239 406.216400,255.883743 
	C421.086517,254.511490 432.597473,260.265717 440.010590,273.279907 
	C446.842712,285.274109 445.586548,300.765656 436.527222,311.226776 
	C426.783325,322.478424 414.328827,325.910645 399.554901,321.557190 
M429.744019,303.122986 
	C435.545471,293.782043 435.430359,283.188263 429.439209,275.064972 
	C424.213104,267.979004 414.950409,264.389221 406.761627,266.564301 
	C407.388367,268.443237 407.943665,270.323395 408.638794,272.150360 
	C410.531464,277.124817 412.490417,282.074036 414.408722,287.038788 
	C415.490814,289.839355 415.416412,292.520844 412.293793,293.760468 
	C409.038208,295.052917 406.421143,293.931702 405.084076,290.499268 
	C404.540894,289.104797 404.062439,287.684784 403.507782,286.295074 
	C401.377502,280.957825 399.228271,275.628174 396.884857,269.794708 
	C388.297363,276.311432 385.575470,284.480865 387.153320,293.984039 
	C388.745148,303.571594 394.728516,309.983185 404.053253,312.342651 
	C414.056061,314.873718 422.831970,312.256195 429.744019,303.122986 
M359.260437,273.750397 
	C365.866577,266.406677 372.472748,259.062988 379.670654,251.061462 
	C366.798096,251.061462 355.134491,251.061462 342.970398,251.061462 
	C346.419952,260.924194 349.689911,270.273315 353.217834,280.360077 
	C355.485291,277.917664 357.159546,276.114197 359.260437,273.750397 
M340.897339,275.572021 
	C338.934601,269.737518 336.971832,263.903015 334.863464,257.635681 
	C328.673615,264.757721 328.796570,264.687225 332.697540,271.490723 
	C334.162201,274.045105 335.500458,276.939026 335.850677,279.805908 
	C336.453278,284.738129 338.823029,285.459595 343.431641,283.884735 
	C342.643158,281.294159 341.889221,278.817200 340.897339,275.572021 
z"/>
<path fill="#5AC6B4" opacity="1.000000" stroke="none" 
	d="
M168.867798,241.934845 
	C168.867798,243.372116 168.867798,244.809387 168.867798,246.492645 
	C165.841278,246.683960 163.233521,246.848785 159.741898,247.069504 
	C165.323807,262.491486 172.296921,277.351105 168.022491,294.801178 
	C165.359146,294.801178 162.077148,294.986877 158.826813,294.745850 
	C155.923416,294.530518 154.697739,295.679321 154.051666,298.439270 
	C150.943039,311.719330 141.815659,319.243591 129.237915,322.472809 
	C116.729462,325.684235 105.856987,321.660065 97.010384,312.481781 
	C87.166801,302.269165 85.575180,284.969727 93.047874,272.545502 
	C101.117149,259.129364 115.864044,252.656738 130.221573,257.051025 
	C135.345459,258.619263 137.783890,257.427704 139.959229,252.980621 
	C141.704727,249.412308 144.137787,246.180313 146.816437,242.392456 
	C154.534012,241.968857 161.700912,241.951859 168.867798,241.934845 
M134.452896,294.263214 
	C131.122131,294.256012 127.748207,294.571716 124.474922,294.134277 
	C122.075882,293.813751 118.633797,293.102264 117.805199,291.472595 
	C116.932220,289.755615 118.071075,286.424713 119.280472,284.353394 
	C122.600395,278.667419 126.418327,273.272186 130.083817,267.693939 
	C121.371460,263.759430 110.496010,266.333099 104.548332,273.344421 
	C97.298706,281.890472 96.391739,294.124908 102.347946,303.026428 
	C108.145409,311.690704 118.714287,315.431030 128.683380,312.346558 
	C137.623154,309.580536 143.962540,302.239929 143.762024,294.270996 
	C141.000061,294.270996 138.215134,294.270996 134.452896,294.263214 
M149.655823,270.913696 
	C151.082001,273.886383 153.118164,276.727264 153.795486,279.861755 
	C154.889862,284.926300 157.439835,285.834839 162.471130,284.058136 
	C158.914963,273.994904 155.434372,264.145477 151.843460,253.983917 
	C144.360413,261.887604 144.134933,263.578094 149.655823,270.913696 
M142.527603,278.037598 
	C141.354233,276.504730 140.180847,274.971863 138.432388,272.687744 
	C135.598434,276.903625 133.218948,280.443420 130.440186,284.577209 
	C135.912262,284.577209 140.162811,284.577209 145.171280,284.577209 
	C144.282120,282.295654 143.583298,280.502502 142.527603,278.037598 
z"/>
<path fill="#EE933B" opacity="1.000000" stroke="none" 
	d="
M168.950134,241.480392 
	C161.700912,241.951859 154.534012,241.968857 146.956223,242.059143 
	C130.602051,242.077454 114.658531,242.060715 98.715599,241.955185 
	C86.313957,241.873108 76.844276,236.608658 71.420036,225.308441 
	C65.895340,213.798935 67.148308,202.631790 74.884224,192.489029 
	C80.441612,185.202591 88.213120,181.732330 97.274590,181.132004 
	C99.922615,180.956558 102.588211,181.046478 105.716255,180.929504 
	C126.776566,180.925308 147.366379,181.006363 168.414581,181.097260 
	C168.921478,185.013931 168.970016,188.920761 168.474136,193.279358 
	C147.439865,193.830215 126.950027,193.929306 106.460182,194.028381 
	C103.469048,193.967575 100.473885,193.777191 97.487511,193.869843 
	C87.914810,194.166840 80.758247,202.033203 80.816528,212.072220 
	C80.871376,221.518463 87.956978,229.078339 97.359612,229.169571 
	C112.005882,229.311691 126.655296,229.130508 142.214218,229.113556 
	C146.537277,229.087509 149.949493,229.034225 153.361710,228.980957 
	C158.430573,228.980957 163.499435,228.980957 169.032486,228.980957 
	C169.032486,233.526031 169.032486,237.275986 168.950134,241.480392 
z"/>
<path fill="#2E419B" opacity="1.000000" stroke="none" 
	d="
M238.255432,181.094727 
	C237.986237,171.674210 237.717041,162.253693 237.440033,152.559967 
	C252.774216,152.559967 268.834564,152.559967 285.998932,152.559967 
	C278.891846,162.387711 272.220154,171.613358 264.807495,180.991425 
	C255.462784,181.127457 246.859116,181.111099 238.255432,181.094727 
z"/>
<path fill="#2D4098" opacity="1.000000" stroke="none" 
	d="
M403.222015,193.983978 
	C402.756042,202.667297 398.359802,206.914124 389.634644,206.946320 
	C377.343323,206.991699 365.050720,207.040314 352.760895,206.898178 
	C349.521606,206.860733 347.464203,207.561401 345.515106,210.588409 
	C339.932495,219.258377 328.764526,222.628662 320.436401,218.309113 
	C324.612549,214.402145 325.635468,208.181351 332.129700,206.048141 
	C334.368378,205.312775 335.684143,201.321945 337.075409,198.638779 
	C337.782166,197.275742 337.720276,195.514145 338.791260,193.769714 
	C343.721832,193.621033 347.867065,193.625320 352.012207,193.651367 
	C369.082153,193.758667 386.152069,193.872528 403.222015,193.983978 
z"/>
<path fill="#EB903A" opacity="1.000000" stroke="none" 
	d="
M403.672546,193.922638 
	C386.152069,193.872528 369.082153,193.758667 352.012207,193.651367 
	C347.867065,193.625320 343.721832,193.621033 339.083557,193.513443 
	C341.474121,189.367645 344.357788,185.315140 347.514648,181.078781 
	C366.130890,180.913818 384.473907,180.932678 403.257141,180.865601 
	C410.103180,180.779663 416.509064,180.779663 422.779846,180.779663 
	C422.779846,185.443069 422.779846,189.301758 422.779846,193.861328 
	C416.886566,193.861328 410.504822,193.861328 403.672546,193.922638 
z"/>
<path fill="#2A3F98" opacity="1.000000" stroke="none" 
	d="
M106.447876,194.407623 
	C126.950027,193.929306 147.439865,193.830215 168.384583,193.715332 
	C168.839432,200.807617 168.839432,207.915710 168.839432,216.462326 
	C166.421738,214.064911 164.130356,212.698914 163.236771,210.706116 
	C161.679169,207.232513 159.234100,206.971497 156.039627,207.002594 
	C143.908661,207.120697 131.775467,207.100235 119.643768,207.024750 
	C111.256783,206.972565 107.323364,203.243622 106.447876,194.407623 
z"/>
<path fill="#5AC6B4" opacity="1.000000" stroke="none" 
	d="
M153.277115,228.573029 
	C149.949493,229.034225 146.537277,229.087509 142.694809,229.040161 
	C140.647415,227.984680 139.108109,226.423004 137.396667,226.203537 
	C134.014603,225.769867 131.294571,224.683304 131.450256,221.007767 
	C131.607071,217.306213 134.258911,216.425003 137.810104,216.603622 
	C144.080719,216.918991 150.376083,216.804153 156.660339,216.760986 
	C160.006317,216.738007 162.873657,217.470795 162.790695,221.439713 
	C162.717896,224.923279 160.292160,225.992447 156.995010,226.099213 
	C155.706558,226.140945 154.458817,227.439163 153.277115,228.573029 
z"/>
<path fill="#E89140" opacity="1.000000" stroke="none" 
	d="
M238.171249,181.538483 
	C246.859116,181.111099 255.462784,181.127457 264.529999,181.196075 
	C262.110107,185.348099 259.226654,189.447891 255.622620,193.684631 
	C249.366226,193.776413 243.830444,193.731232 238.294678,193.686066 
	C238.225479,189.784790 238.156265,185.883514 238.171249,181.538483 
z"/>
<path fill="#60C7B4" opacity="1.000000" stroke="none" 
	d="
M241.856888,277.758453 
	C250.640228,287.998840 249.176834,303.307068 238.291718,312.901947 
	C238.168076,311.098694 238.005066,309.767822 237.997040,308.436035 
	C237.940933,299.139893 237.950974,289.843201 237.861237,280.547485 
	C237.835358,277.867828 238.350464,276.160736 241.856888,277.758453 
z"/>
<path fill="#F4973F" opacity="1.000000" stroke="none" 
	d="
M442.132629,179.413971 
	C446.182526,181.630447 448.761322,184.864243 447.323639,188.901489 
	C446.359344,191.609329 443.592529,194.723526 440.992889,195.491394 
	C438.626770,196.190277 434.120514,194.784668 432.872498,192.829269 
	C431.306549,190.375656 431.121399,186.082336 432.109680,183.186951 
	C433.509735,179.085358 437.614502,178.335495 442.132629,179.413971 
z"/>
<path fill="#2D439A" opacity="1.000000" stroke="none" 
	d="
M238.188812,194.170471 
	C243.830444,193.731232 249.366226,193.776413 255.352814,193.887329 
	C253.312012,197.634323 251.328049,201.863968 248.151184,204.805038 
	C246.015045,206.782623 242.191315,206.937332 238.082947,208.236267 
	C238.082947,202.760727 238.082947,198.707794 238.188812,194.170471 
z"/>
<path fill="#FCFCFD" opacity="1.000000" stroke="none" 
	d="
M121.077179,136.658936 
	C121.573822,130.583511 121.809258,124.907616 122.649178,119.322617 
	C123.895058,111.038277 128.500732,106.409859 136.843246,105.765900 
	C144.097153,105.205956 151.428513,105.649330 159.093216,105.649330 
	C159.093216,121.076210 159.093216,136.305313 159.093216,151.705215 
	C150.489807,151.705215 141.828064,152.371323 133.323364,151.501648 
	C126.074493,150.760376 122.371498,145.455887 121.077179,136.658936 
z"/>
<path fill="#FEFCFA" opacity="1.000000" stroke="none" 
	d="
M429.533142,303.421448 
	C422.831970,312.256195 414.056061,314.873718 404.053253,312.342651 
	C394.728516,309.983185 388.745148,303.571594 387.153320,293.984039 
	C385.575470,284.480865 388.297363,276.311432 396.884857,269.794708 
	C399.228271,275.628174 401.377502,280.957825 403.507782,286.295074 
	C404.062439,287.684784 404.540894,289.104797 405.084076,290.499268 
	C406.421143,293.931702 409.038208,295.052917 412.293793,293.760468 
	C415.416412,292.520844 415.490814,289.839355 414.408722,287.038788 
	C412.490417,282.074036 410.531464,277.124817 408.638794,272.150360 
	C407.943665,270.323395 407.388367,268.443237 406.761627,266.564301 
	C414.950409,264.389221 424.213104,267.979004 429.439209,275.064972 
	C435.430359,283.188263 435.545471,293.782043 429.533142,303.421448 
z"/>
<path fill="#FEFCF9" opacity="1.000000" stroke="none" 
	d="
M359.047119,274.030579 
	C357.159546,276.114197 355.485291,277.917664 353.217834,280.360077 
	C349.689911,270.273315 346.419952,260.924194 342.970398,251.061462 
	C355.134491,251.061462 366.798096,251.061462 379.670654,251.061462 
	C372.472748,259.062988 365.866577,266.406677 359.047119,274.030579 
z"/>
<path fill="#FDF7EF" opacity="1.000000" stroke="none" 
	d="
M341.016327,275.956116 
	C341.889221,278.817200 342.643158,281.294159 343.431641,283.884735 
	C338.823029,285.459595 336.453278,284.738129 335.850677,279.805908 
	C335.500458,276.939026 334.162201,274.045105 332.697540,271.490723 
	C328.796570,264.687225 328.673615,264.757721 334.863464,257.635681 
	C336.971832,263.903015 338.934601,269.737518 341.016327,275.956116 
z"/>
<path fill="#FAFDFC" opacity="1.000000" stroke="none" 
	d="
M134.941559,294.267090 
	C138.215134,294.270996 141.000061,294.270996 143.762024,294.270996 
	C143.962540,302.239929 137.623154,309.580536 128.683380,312.346558 
	C118.714287,315.431030 108.145409,311.690704 102.347946,303.026428 
	C96.391739,294.124908 97.298706,281.890472 104.548332,273.344421 
	C110.496010,266.333099 121.371460,263.759430 130.083817,267.693939 
	C126.418327,273.272186 122.600395,278.667419 119.280472,284.353394 
	C118.071075,286.424713 116.932220,289.755615 117.805199,291.472595 
	C118.633797,293.102264 122.075882,293.813751 124.474922,294.134277 
	C127.748207,294.571716 131.122131,294.256012 134.941559,294.267090 
z"/>
<path fill="#F3FBF7" opacity="1.000000" stroke="none" 
	d="
M149.446442,270.611328 
	C144.134933,263.578094 144.360413,261.887604 151.843460,253.983917 
	C155.434372,264.145477 158.914963,273.994904 162.471130,284.058136 
	C157.439835,285.834839 154.889862,284.926300 153.795486,279.861755 
	C153.118164,276.727264 151.082001,273.886383 149.446442,270.611328 
z"/>
<path fill="#EDF9F5" opacity="1.000000" stroke="none" 
	d="
M142.706055,278.373474 
	C143.583298,280.502502 144.282120,282.295654 145.171280,284.577209 
	C140.162811,284.577209 135.912262,284.577209 130.440186,284.577209 
	C133.218948,280.443420 135.598434,276.903625 138.432388,272.687744 
	C140.180847,274.971863 141.354233,276.504730 142.706055,278.373474 
z"/>
</svg>